<svg xmlns="http://www.w3.org/2000/svg" width="256" height="256" viewBox="0 0 100 100"><rect width="100" height="100" rx="20" fill="#0f172a"></rect><path d="M46.85 36.50L46.85 36.50L42.62 50.18L56.75 50.18L52.52 36.50Q52.16 35.69 51.75 35.33Q51.35 34.97 50.81 34.97L50.81 34.97L48.56 34.97Q48.02 34.97 47.62 35.33Q47.21 35.69 46.85 36.50ZM41.72 66.56L41.72 79.16Q41.72 80.87 40.95 81.64Q40.19 82.40 38.48 82.40L38.48 82.40L25.25 82.40Q23.54 82.40 22.78 81.64Q22.01 80.87 22.01 79.16L22.01 79.16L22.01 55.40Q22.01 52.70 22.87 49.19Q23.72 45.68 25.52 41.00L25.52 41.00L33.35 20.57Q33.89 19.04 35.02 18.32Q36.14 17.60 37.94 17.60L37.94 17.60L62.15 17.60Q63.86 17.60 64.98 18.32Q66.11 19.04 66.65 20.57L66.65 20.57L74.48 41.00Q76.28 45.68 77.14 49.19Q77.99 52.70 77.99 55.40L77.99 55.40L77.99 79.16Q77.99 80.87 77.22 81.64Q76.46 82.40 74.75 82.40L74.75 82.40L61.16 82.40Q59.36 82.40 58.50 81.64Q57.65 80.87 57.65 79.16L57.65 79.16L57.65 66.56L41.72 66.56Z" fill="#fb923c"></path></svg>